<svg xmlns="http://www.w3.org/2000/svg" viewBox="0 0 152 31" fill="none">
  <path
    d="M68.574 6.247C70.023 6.247 71.31 6.638 72.437 7.42C73.564 8.201 74.449 9.282 75.092 10.661C75.736 12.064 76.059 13.662 76.059 15.455C76.059 17.225 75.748 18.801 75.127 20.18C74.483 21.559 73.598 22.64 72.471 23.422C71.322 24.203 70.034 24.594 68.609 24.594C67.344 24.594 66.218 24.284 65.229 23.663C64.218 23.042 63.436 22.18 62.884 21.076C62.823 20.954 62.766 20.83 62.711 20.704V30.527C62.711 30.682 62.586 30.807 62.432 30.807H59.025C58.871 30.807 58.746 30.682 58.746 30.527V7.57C58.746 7.445 58.829 7.335 58.95 7.301L62.356 6.34C62.534 6.29 62.711 6.424 62.711 6.609V10.11C62.766 9.981 62.823 9.854 62.884 9.73C63.413 8.627 64.172 7.764 65.16 7.144C66.149 6.546 67.287 6.247 68.574 6.247ZM85.583 6.247C87.215 6.247 88.653 6.638 89.894 7.42C91.158 8.201 92.136 9.294 92.826 10.696C93.538 12.098 93.894 13.696 93.894 15.49V16.279C93.894 16.433 93.769 16.559 93.615 16.559H81.306C81.306 17.478 81.502 18.283 81.892 18.973C82.283 19.662 82.824 20.203 83.514 20.594C84.227 20.962 85.031 21.146 85.928 21.146C86.917 21.146 87.755 20.927 88.445 20.49C89.071 20.073 89.517 19.533 89.783 18.87C89.831 18.75 89.95 18.671 90.079 18.682L93.559 18.982C93.722 18.996 93.838 19.145 93.805 19.304C93.482 20.867 92.649 22.124 91.308 23.077C89.905 24.088 88.181 24.594 86.135 24.594C84.364 24.594 82.813 24.215 81.479 23.456C80.146 22.675 79.1 21.594 78.341 20.215C77.582 18.812 77.202 17.203 77.202 15.386C77.202 13.616 77.559 12.041 78.271 10.662C78.984 9.282 79.973 8.201 81.237 7.42C82.525 6.638 83.973 6.247 85.583 6.247ZM130.4 0.135C130.578 0.084 130.756 0.218 130.756 0.404V23.763C130.756 23.917 130.631 24.042 130.477 24.043H127.07C126.916 24.043 126.79 23.917 126.79 23.763V20.73C126.736 20.859 126.679 20.986 126.618 21.111C126.089 22.214 125.33 23.077 124.341 23.698C123.353 24.295 122.215 24.594 120.927 24.594C119.479 24.594 118.191 24.203 117.065 23.422C115.938 22.64 115.053 21.559 114.409 20.18C113.765 18.778 113.444 17.179 113.444 15.386C113.444 13.616 113.754 12.041 114.375 10.661C115.019 9.282 115.904 8.201 117.03 7.42C118.18 6.638 119.468 6.247 120.893 6.247C122.157 6.247 123.284 6.558 124.273 7.178C125.284 7.799 126.066 8.661 126.618 9.765C126.679 9.887 126.736 10.011 126.79 10.137V1.365C126.79 1.24 126.874 1.13 126.994 1.096L130.4 0.135ZM44.049 6.247C44.14 6.247 44.225 6.292 44.278 6.367L48.056 11.768L51.836 6.367C51.888 6.292 51.974 6.247 52.065 6.247H56.107C56.333 6.247 56.466 6.502 56.336 6.687L50.419 15.145L56.336 23.603C56.466 23.788 56.333 24.043 56.107 24.043H52.065C51.974 24.043 51.888 23.998 51.836 23.923L48.056 18.521L44.278 23.923C44.225 23.998 44.14 24.043 44.049 24.043H40.007C39.781 24.043 39.648 23.788 39.777 23.603L45.694 15.145L39.777 6.687C39.648 6.502 39.781 6.247 40.007 6.247H44.049ZM105.706 6.247C106.902 6.247 107.925 6.535 108.775 7.109C109.626 7.661 110.27 8.478 110.707 9.558C111.167 10.616 111.396 11.892 111.396 13.386V23.763C111.396 23.917 111.271 24.043 111.117 24.043H107.71C107.556 24.043 107.431 23.917 107.431 23.763V13.524C107.43 12.305 107.155 11.363 106.603 10.696C106.074 10.029 105.327 9.696 104.361 9.696C103.074 9.696 102.039 10.248 101.257 11.351C100.476 12.432 100.085 13.869 100.085 15.662V23.763C100.085 23.917 99.96 24.043 99.805 24.043H96.399C96.244 24.043 96.119 23.917 96.119 23.763V7.57C96.119 7.445 96.202 7.335 96.323 7.301L99.729 6.34C99.908 6.29 100.085 6.424 100.085 6.609V9.769C100.096 9.744 100.107 9.72 100.119 9.696C100.671 8.615 101.43 7.776 102.396 7.178C103.361 6.558 104.465 6.247 105.706 6.247ZM137.764 7.366C137.919 7.366 138.044 7.491 138.044 7.646V23.763C138.044 23.917 137.919 24.043 137.764 24.043H134.358C134.203 24.042 134.078 23.917 134.078 23.763V7.646C134.078 7.491 134.203 7.366 134.358 7.366H137.764ZM146.525 0.129C146.704 0.078 146.881 0.212 146.881 0.398V7.358H151.658C151.851 7.358 151.986 7.55 151.922 7.732L150.901 10.621C150.862 10.732 150.756 10.807 150.637 10.807H146.881V18.525C146.881 19.214 147.053 19.732 147.398 20.076C147.743 20.421 148.26 20.594 148.95 20.594H151.674C151.863 20.594 151.997 20.776 151.942 20.956L151.049 23.846C151.013 23.963 150.904 24.043 150.782 24.043H148.433C147.191 24.043 146.157 23.847 145.329 23.456C144.524 23.065 143.914 22.479 143.501 21.697C143.11 20.916 142.914 19.939 142.914 18.766V10.807H139.47C139.316 10.807 139.19 10.682 139.19 10.527V7.638C139.19 7.484 139.316 7.358 139.47 7.358H142.914V1.359C142.914 1.234 142.998 1.124 143.118 1.09L146.525 0.129ZM67.367 9.696C66.448 9.696 65.643 9.926 64.953 10.386C64.264 10.869 63.723 11.547 63.332 12.42C62.941 13.294 62.746 14.294 62.746 15.421C62.746 16.547 62.941 17.548 63.332 18.421C63.723 19.295 64.264 19.962 64.953 20.421C65.643 20.904 66.448 21.145 67.367 21.145C68.287 21.145 69.092 20.904 69.781 20.421C70.471 19.962 71.011 19.295 71.402 18.421C71.793 17.548 71.988 16.547 71.988 15.421C71.988 14.294 71.793 13.294 71.402 12.42C71.011 11.547 70.471 10.869 69.781 10.386C69.092 9.926 68.287 9.696 67.367 9.696ZM122.134 9.696C121.215 9.696 120.41 9.937 119.72 10.42C119.031 10.88 118.49 11.547 118.099 12.42C117.708 13.294 117.513 14.294 117.513 15.42C117.513 16.547 117.708 17.548 118.099 18.421C118.49 19.295 119.031 19.973 119.72 20.456C120.41 20.915 121.215 21.145 122.134 21.145C123.054 21.145 123.859 20.915 124.549 20.456C125.238 19.973 125.778 19.295 126.169 18.421C126.56 17.548 126.755 16.547 126.755 15.42C126.755 14.294 126.56 13.294 126.169 12.42C125.778 11.547 125.238 10.88 124.549 10.42C123.859 9.937 123.054 9.696 122.134 9.696ZM85.549 9.696C84.721 9.696 83.985 9.857 83.341 10.179C82.698 10.5 82.192 10.949 81.824 11.524C81.522 12.027 81.352 12.6 81.315 13.245C81.305 13.399 81.432 13.524 81.586 13.524H89.545C89.7 13.524 89.826 13.399 89.816 13.245C89.775 12.621 89.594 12.059 89.273 11.558C88.905 10.961 88.399 10.5 87.755 10.179C87.135 9.857 86.399 9.696 85.549 9.696ZM137.703 0.342C137.878 0.302 138.044 0.435 138.044 0.615V3.951C138.044 4.106 137.919 4.23 137.764 4.23H134.358C134.203 4.23 134.078 4.106 134.078 3.951V1.384C134.078 1.254 134.168 1.141 134.296 1.112L137.703 0.342Z"
    fill="#fff"
  />
  <path
    d="M7.881 15.712C9.996 14.142 12.889 14.142 15.004 15.712L30.825 27.458C30.977 27.57 31.066 27.749 31.066 27.938V29.466C31.066 29.702 30.805 29.845 30.607 29.718L17.531 21.357C16.434 20.656 15.017 20.705 13.972 21.482L1.541 30.711C1.049 31.076 0.35 30.724 0.349 30.111V21.755C0.349 21.472 0.484 21.204 0.711 21.035L7.881 15.712ZM29.875 0.177C30.367 -0.189 31.066 0.163 31.066 0.776V9.132C31.066 9.416 30.932 9.683 30.704 9.852L23.535 15.175C21.42 16.745 18.526 16.745 16.412 15.175L0.591 3.43C0.439 3.317 0.349 3.139 0.349 2.95V1.421C0.35 1.185 0.61 1.042 0.809 1.169L13.885 9.53C14.982 10.231 16.399 10.182 17.444 9.405L29.875 0.177Z"
    fill="#bef152"
  />
</svg>
